<?xml version="1.0" encoding="utf-8"?>
<!-- Generator: Adobe Illustrator 23.1.0, SVG Export Plug-In . SVG Version: 6.00 Build 0)  -->
<svg version="1.1" id="Laag_1" xmlns="http://www.w3.org/2000/svg" xmlns:xlink="http://www.w3.org/1999/xlink" x="0px" y="0px"
	 viewBox="0 0 283.5 44.6" style="enable-background:new 0 0 283.5 44.6;" xml:space="preserve">
<style type="text/css">
	.st0{fill:#0E7DC7;}
</style>
<path class="st0" d="M276.7,0C273,0,270,3,270,6.8c0,3.7,3,6.8,6.8,6.8c3.7,0,6.8-3,6.8-6.8C283.5,3,280.4,0,276.7,0 M271.1,5.3
	l1.8,1l0.7,2.6l-1,1.9C272.6,10.8,271.1,5.3,271.1,5.3z M280.3,11.3c-0.7-0.5-2.9-2.2-3.1-2.4C277,8.7,277,8.3,277,8.1
	s0.5-3.4,0.5-3.4H274c0,0,1.6,0.9,2.1,1.2c0.6,0.3,0.7,0.7,0.4,1.3c-0.3,0.6-1.9,3.6-2.4,4.5c-0.4,0.8-1.7,0.3-1.2-0.9
	c0.6-1.1,2-3.9,2-3.9s-3-1.7-3.7-2.1c-0.7-0.4-0.4-1.6,0.5-1.6h6.4c0.8,0,0.9,0.4,0.8,1.1s-0.6,3.6-0.6,3.6s2.1,1.6,2.8,2.2
	C281.9,10.8,281,11.9,280.3,11.3 M280.9,6.5c-0.9,0-1.6-0.7-1.6-1.6s0.7-1.6,1.6-1.6s1.6,0.7,1.6,1.6S281.8,6.5,280.9,6.5
	 M44.8,19.7l27.1-15c-7.4,0-18.6,0.4-24.8,0.4L23.7,18.3L25.8,5C15.1,4.9,16.5,4.9,5.2,4.8c0,0-5.1,32.7-5.2,32.7h21.3l2.1-16.6
	c9,7,16.2,12.9,20.2,16.6h25.8L48.5,22.6L44.8,19.7z M255.6,4.8h-12.3c-2.5,0-6.5,0.2-12,0.1c-1.7,1.6-5.9,5.7-5.9,5.7L202,33.1
	c0.1-1.6,0.3-3.4,0.5-5.4c0.4-3.7,0.8-6.7,1.1-8.8l0.1-0.8c0,0-18.6-0.9-27.6,0.4l-0.6,5.8c0,0,9.8,0.3,11.8,0.4l-0.6,5.3
	c-3.3,0.4-9.7,1-12.5,1c-3.4,0-6.4-0.3-9.2-1c-2.7-0.7-4.7-1.6-6-2.9s-1.9-2.7-1.9-4.4c0-1.6,0.5-3.1,1.7-4.6c1.1-1.4,2.8-2.7,5-3.7
	s4.9-1.8,7.9-2.3c3.1-0.5,6.3-0.8,9.8-0.8c1.3,0,2.8,0,4.5,0.1c4.6,0.2,10.1,0.6,18.5,1.5l0.2-5c-8.4-1.8-19.5-3.8-26.4-3.8
	c-9.4,0-17.1,0.8-23,2.4s-10.5,3.8-13.7,6.6c-1.7,1.5-2.9,3-3.7,4.6c-0.4-1.5-1.1-2.8-2.2-4.1c-1.7-2-4.3-3.7-7.8-5.2
	s-7.5-2.6-12.2-3.3c-4.6-0.7-9.5-1-14.5-1C93.4,4.3,86.3,5,80,6.5C73.8,8,69,10,65.9,12.7c-3.2,2.6-4.8,5.7-4.8,9.2
	c0,2.4,0.8,4.5,2.3,6.5c1.5,1.9,4.1,3.7,7.7,5.3c3.6,1.6,7.8,2.7,12.7,3.4c4.9,0.7,9.9,1.1,15.3,1.1s10.5-0.4,15.5-1.1
	c5-0.7,9.2-1.9,12.8-3.4c3.6-1.6,6.3-3.5,8.2-5.7c0.8-0.9,1.4-1.9,1.8-2.8c0.3,1,0.7,1.9,1.4,2.9c1.2,1.8,2.9,3.4,5,4.8
	c2.2,1.3,4.9,2.4,8.1,3.2c3.2,0.8,6.9,1.3,11,1.7c4.1,0.3,8.3,0.5,12.6,0.5c2.6,0,5.6-0.1,8.9-0.2c3.3-0.1,7.7-0.3,10-0.4
	c1.5-0.1,1.9-0.1,4-0.1h21.2c2.9-3.4,5.7-6.5,8.5-9.3h23.7c2.6,3.6,4.6,6.7,6,9.3h21.5L255.6,4.8z M121.1,21.5
	c-1,5.4-10.2,9.5-21.3,9.5h-1.3c-8-0.2-14.7-2.6-17.6-6.2c-1.2-1.5-1.6-3.1-1.3-4.7c1-5.4,10.2-9.5,21.3-9.5h1.3
	c8,0.2,14.7,2.6,17.6,6.2C120.9,18.3,121.4,19.9,121.1,21.5z M233.6,21.2l3.4-3.5c1.4-1.5,3.4-3.7,5.5-6.1c0.3,0.6,2.1,4,5.8,9.6
	H233.6z"/>
</svg>
